<?xml version="1.0" encoding="UTF-8"?>
<svg id="Layer_1" data-name="Layer 1" xmlns="http://www.w3.org/2000/svg" viewBox="0 0 5600 850">
  <defs>
    <style>
      .cls-1 {
        letter-spacing: -.13em;
      }

      .cls-2 {
        font-family: IBMCourier-Bold, 'IBM Courier';
        font-size: 486.55px;
        font-weight: 700;
      }

      .cls-3 {
        letter-spacing: 0em;
      }

      .cls-4 {
        letter-spacing: -.25em;
      }
    </style>
  </defs>
  <path d="m0,0v850h850V0H0Zm794.46,503.04s-.57.83-.57.83l-1.13,1.5c-8.08,10.15-17.68,18.95-27.4,27.46-2.61,2.35-7.91,6.77-10.65,8.96-39.35,31.91-82.18,59.39-125.79,85-27.97,16.15-56.81,30.71-86.48,43.53-8.52,3.71-17.19,7.17-26.08,10.36-9.48,3.19-18.3,6.35-28.74,7.11-13.12,1.1-22.48-6.6-19.53-20.49,2.98-12.41,10.07-22.68,16.74-33.08,15.58-23.05,32.92-44.82,50.63-66.08,4.57-5.47,9.23-10.91,13.96-16.31-20.71,10.97-41.89,21.11-63.52,30.35-8.85,3.68-17.41,7.29-26.82,9.91-6.13,1.5-13.59,3.43-19.56-.58-4.78-3.19-5.47-9.68-3.93-14.31,2.48-7.75,6.98-13.85,11.28-20.12,2.74-3.87,5.57-7.6,8.45-11.27,1.69-2.16,3.41-4.3,5.12-6.44-19.37,14.62-39.28,28.57-59.82,41.67-4.09,2.43-8.27,4.75-13.03,6.77-3.62,1.45-7.35,2.78-11.58,2.35-7.49-.84-10.36-7.96-8.87-14.5,1.87-8.71,6.38-16.45,10.51-24.02,4.65-8.18,9.6-16.03,14.6-23.83,20.14-30.93,41.5-60.85,64.52-89.64,17.22-21.49,35.16-42.35,53.82-62.58,16.17-17.82,67.64-70.67,62.43-93.72-3.34-8.1-21.85-5.47-29.24-4.2-25.35,4.75-49.58,15.29-74.26,22.93-23.74,6.45-47.86,11.81-72.55,13.42-13.12.45-31.9,1.19-40.1-11.52-8.13-14.15,3.95-29.94,12.28-40.63,18.02-21.84,39.2-40.12,61.23-57.58,6.62-5.2,25.03-20.17,31.54-25.25,6.78-5.56,13.69-11.19,19.65-17.52,2.93-3.08,5.66-6.33,7.57-9.55,1.18-2.07,2.08-3.79,2.17-5.61,0-.04,0-.06,0-.08-1.54-.92-3.96-1.46-6.41-1.56-8.09-.41-16.98,1.13-25.12,2.99-17.28,4.01-34.36,10.07-50.98,16.36-35.64,14.27-72.08,26.96-109.96,34.01,5.43,11.5,8.76,23.92,12.22,36.04,17.02,62.48,26.44,126.9,28.38,191.59.9,36.84-.17,74.16-4.37,110.8-3.08,22.9-7.7,58.84-25.89,74.74-12.24,10.55-28.12,5.99-39.74-2.74-41.9-31.53-91.22-130.51-124.67-210.97,5.17,67.1,7.3,134.34,8.49,201.66.4,38.53,1.08,76.89-1.31,115.51-.59,8.46-7.92,14.84-16.38,14.25-9.05-.57-15.7-9.12-14.05-18.02,3.19-18.03,4.67-36.84,5.86-55.28,5.13-103.5.59-207.73-9.84-310.77-1.12-9.42-2.18-18.9-3.42-28.37-.04-.14-.09-.28-.14-.41-4.27-13.48-8.5-26.98-11.09-41.13-.75-5.33-1.88-10.91-.35-16.67.68-2.26,1.57-4.29,3.72-6.43,0,0,12.35-12.03,12.35-12.03,0,0,5.61,16.39,5.61,16.39,3.24,9.68,5.36,19.23,7.27,29.06,2.1,10.95,3.8,21.9,5.3,32.87,29.9,94.62,101.84,262.65,151.11,284.59,11.66,4.8,18.6-6.62,22.29-16.07,6.2-16.17,8.35-34.28,9.83-51.69,2.58-35.91,1.57-72.36-.89-108.32-2.4-36.07-6.55-72.07-11.97-107.8-4.04-26.65-8.84-53.61-15.25-79.76-3.23-12.65-6.26-25.39-12.32-36.95-.26-.49-.51-.97-.77-1.45-3.14.06-6.3-.2-9.45-1.09-2.04-.51-5.2-2.34-6.83-4.52-1.63-1.94-2.65-5-2.61-7.44.02-1.46.07-1.34.1-1.79.13-1.4.3-2.85.66-4.52l.31-1.3c.14-.48.26-.93.44-1.44,2.7-8.62,11.98-12.25,19.54-6.84,2.94,2.22,5.37,4.97,7.49,7.94,3.4-.76,6.79-1.69,10.12-2.51,8.52-2.32,17.09-5.02,25.63-7.86,16.24-5.41,58.61-19.71,74.33-24.63,19.15-5.73,38.44-10.07,58.25-13.09,4.69-.66,9.42-1.26,14.26-1.63,7.69-.45,15.74-.95,23.62,1.71,8.37,2.78,12.93,10.57,10.79,19.21-2.02,8.16-6.91,14.76-11.47,21.05-14.26,18.77-31.38,35.12-50,49.43-16.51,13.38-72.73,51.98-73.65,72.06.05.32.14.51.26.71,1.2,1.64,4.27,2.6,6.78,3.09,10.31,1.74,21.16.27,31.56-1.36,17.57-3.01,35-7.74,52.21-12.61,3.64-.96,8.92-2.72,12.53-3.97,25.15-8.6,72.99-23.5,98.45-15.69,27.34,9.56,13.99,40.33,3.8,58.18-13.89,24.33-31.17,46.5-48.92,68.03-33,40.79-71.78,84.89-105.27,125.45-8.57,10.54-16.91,21.22-24.68,32.32-5.01,7.22-9.96,14.76-13.81,22.53-1.03,2.12-1.95,4.18-2.6,6.28.66-.24,1.31-.5,1.91-.72,11.8-5.33,22.62-13.51,33.1-21.47,14.34-11.1,28.04-23.01,41.65-35.01,24.73-22.47,52.08-45.86,78.99-69.29,5.48-6.33,10.95-12.68,16.37-19.09,20.54-25.36,43.14-49.41,69.1-69.43,5.08-3.42,11.89-9.23,18.59-3.22,3.4,4.26,2.14,6.76,2.19,7.72-.54,2.44-1.44,4-2.61,5.85-2.88,4.44-5.91,7.88-9.2,11.72-12.39,13.98-25.31,26.98-38.44,40.11-9.43,9.37-18.98,18.62-28.63,27.76-18.4,22.67-38.79,43.76-59.05,64.61-15.82,16.35-31.79,32.27-45.62,50.05-3.06,4.14-6.34,8.46-8.38,12.95,1.46-.24,2.98-.63,4.48-1.09,12.48-3.86,24.51-10.23,36.11-16.4,34.53-19.19,68.02-40.44,102.65-59.55,5.03-5.63,10.56-10.86,16.35-15.56,16.82-13.49,34.92-24.75,54.39-33.87,3.2-1.39,6.27-2.73,9.87-3.45.52-.09,1.08-.18,1.88-.21.85.03,1.77-.18,4.1.7,2.88.29,6.1,6.9,4.92,8.78-.62,3.27-1.8,4.31-3.19,6.08-1.92,2.21-3.82,3.7-5.89,5.48-22.03,17.05-44.8,33.05-68.26,47.93-12.03,15.44-25.44,29.57-38.61,43.94-27.06,29.67-57.41,58.59-79.39,92.19-2.28,3.68-4.36,7.46-5.92,11.11-.76,1.82-1.36,3.63-1.69,5.19-.16.77-.24,1.48-.24,1.99,0,.23,0,.4.03.54.06.02.14.05.23.07.8.24,2.46.36,4.22.2,7.84-.83,16.46-3.96,24.04-7.11,24.57-10.42,48.17-24.72,71.34-38.36,46.48-28.05,94.36-55.12,140.05-84.26,15.14-9.63,30.46-19.66,44.9-30.27,6.65-4.93,13.25-9.92,19.22-15.61,0,0,.5-.51.5-.51.2-.2.32-.32.39-.37l1.33-.93c4.38-3.08,10.17,2.6,6.04,7.41Z"/>
  <text class="cls-2" transform="translate(1090.46 585.49)"><tspan x="0" y="0">N.</tspan><tspan class="cls-4" x="583.85" y="0"> </tspan><tspan class="cls-3" x="753.17" y="0">Escobar</tspan><tspan class="cls-1" x="2796.65" y="0"> </tspan><tspan class="cls-3" x="3026.3" y="0">Media</tspan></text>
</svg>